<?xml version="1.0" encoding="UTF-8" standalone="no"?>
<!DOCTYPE svg PUBLIC "-//W3C//DTD SVG 1.1//EN"
 "http://www.w3.org/Graphics/SVG/1.1/DTD/svg11.dtd">
<!-- Generated by graphviz version 2.38.0 (20140413.2041)
 -->
<!-- Title: liballocs Pages: 1 -->
<svg width="936pt" height="371pt"
 viewBox="0.00 0.00 935.55 371.20" xmlns="http://www.w3.org/2000/svg" xmlns:xlink="http://www.w3.org/1999/xlink">
<g id="graph0" class="graph" transform="scale(1 1) rotate(0) translate(4 367.203)">
<title>liballocs</title>
<polygon fill="white" stroke="none" points="-4,4 -4,-367.203 931.551,-367.203 931.551,4 -4,4"/>
<!-- liballocs -->
<g id="node1" class="node"><title>liballocs</title>
<ellipse fill="none" stroke="green" cx="430.075" cy="-341.283" rx="49.4949" ry="21.8409"/>
<g id="a_node1_0"><a xlink:href="https://github.com/stephenrkell/liballocs.git" xlink:title="Meta&#45;level run&#45;time services for Unix processes... a.k.a. dragging Unix into the 1980s">
<text text-anchor="start" x="407.075" y="-337.083" font-family="Times,serif" font-size="14.00">liballocs</text>
</a>
</g>
</g>
<!-- libmallochooks -->
<g id="node2" class="node"><title>libmallochooks</title>
<ellipse fill="none" stroke="green" cx="77.0746" cy="-261.442" rx="77.1494" ry="21.8409"/>
<g id="a_node2_1"><a xlink:href="https://github.com/stephenrkell/libmallochooks" xlink:title="Composable high&#45;level instrumentation for C libraries&#39; malloc and friends">
<text text-anchor="start" x="35.0746" y="-257.242" font-family="Times,serif" font-size="14.00">libmallochooks</text>
</a>
</g>
</g>
<!-- liballocs&#45;&gt;libmallochooks -->
<g id="edge1" class="edge"><title>liballocs&#45;&gt;libmallochooks</title>
<path fill="none" stroke="black" d="M385.581,-331.203C332.513,-320.28 241.167,-301.181 163.075,-283.362 156.633,-281.893 149.929,-280.326 143.232,-278.737"/>
<polygon fill="black" stroke="black" points="143.997,-275.322 133.458,-276.402 142.371,-282.13 143.997,-275.322"/>
</g>
<!-- cil -->
<g id="node3" class="node"><title>cil</title>
<ellipse fill="none" stroke="yellow" cx="199.075" cy="-261.442" rx="27" ry="21.8409"/>
<g id="a_node3_2"><a xlink:href="https://github.com/stephenrkell/cil.git" xlink:title="C Intermediate Language">
<text text-anchor="start" x="192.075" y="-257.242" font-family="Times,serif" font-size="14.00">cil</text>
</a>
</g>
</g>
<!-- liballocs&#45;&gt;cil -->
<g id="edge2" class="edge"><title>liballocs&#45;&gt;cil</title>
<path fill="none" stroke="black" d="M385.027,-332.005C342.722,-322.696 278.58,-305.885 226.075,-283.362 225.763,-283.229 225.451,-283.093 225.139,-282.956"/>
<polygon fill="black" stroke="black" points="226.624,-279.786 216.106,-278.512 223.534,-286.067 226.624,-279.786"/>
</g>
<!-- liballocs&#45;&gt;cil -->
<g id="edge8" class="edge"><title>liballocs&#45;&gt;cil</title>
<path fill="none" stroke="black" d="M388.113,-329.425C349.722,-319.748 292.043,-303.939 244.075,-283.362 240.004,-281.616 235.819,-279.507 231.684,-277.309"/>
<polygon fill="black" stroke="black" points="233.234,-274.168 222.778,-272.461 229.888,-280.316 233.234,-274.168"/>
</g>
<!-- libdlbind -->
<g id="node4" class="node"><title>libdlbind</title>
<ellipse fill="none" stroke="green" cx="296.075" cy="-261.442" rx="51.7379" ry="21.8409"/>
<g id="a_node4_3"><a xlink:href="https://github.com/stephenrkell/libdlbind.git" xlink:title="Dynamic creation and update of ELF files, or: an allocator for JIT compilers">
<text text-anchor="start" x="272.075" y="-257.242" font-family="Times,serif" font-size="14.00">libdlbind</text>
</a>
</g>
</g>
<!-- liballocs&#45;&gt;libdlbind -->
<g id="edge3" class="edge"><title>liballocs&#45;&gt;libdlbind</title>
<path fill="none" stroke="black" d="M400.999,-323.393C381.467,-312.046 355.523,-296.976 334.321,-284.659"/>
<polygon fill="black" stroke="black" points="335.962,-281.565 325.557,-279.568 332.446,-287.618 335.962,-281.565"/>
</g>
<!-- liballocstool -->
<g id="node5" class="node"><title>liballocstool</title>
<ellipse fill="none" stroke="green" cx="430.075" cy="-261.442" rx="64.1938" ry="21.8409"/>
<g id="a_node5_4"><a xlink:href="https://github.com/stephenrkell/liballocstool.git" xlink:title="Helpers for generating descriptions of binaries&#39; ABIs, types, allocation sites and the like">
<text text-anchor="start" x="397.075" y="-257.242" font-family="Times,serif" font-size="14.00">liballocstool</text>
</a>
</g>
</g>
<!-- liballocs&#45;&gt;liballocstool -->
<g id="edge4" class="edge"><title>liballocs&#45;&gt;liballocstool</title>
<path fill="none" stroke="black" d="M430.075,-319.013C430.075,-311.14 430.075,-302.045 430.075,-293.482"/>
<polygon fill="black" stroke="black" points="433.575,-293.417 430.075,-283.417 426.575,-293.417 433.575,-293.417"/>
</g>
<!-- libsystrap -->
<g id="node6" class="node"><title>libsystrap</title>
<ellipse fill="none" stroke="green" cx="567.075" cy="-261.442" rx="54.3945" ry="21.8409"/>
<g id="a_node6_5"><a xlink:href="https://github.com/stephenrkell/libsystrap.git" xlink:title="Monitor, rewrite and/or otherwise trap system calls... on Linux/x86{,&#45;64} only, for now.">
<text text-anchor="start" x="541.075" y="-257.242" font-family="Times,serif" font-size="14.00">libsystrap</text>
</a>
</g>
</g>
<!-- liballocs&#45;&gt;libsystrap -->
<g id="edge5" class="edge"><title>liballocs&#45;&gt;libsystrap</title>
<path fill="none" stroke="black" d="M459.465,-323.584C479.278,-312.327 505.656,-297.339 527.336,-285.021"/>
<polygon fill="black" stroke="black" points="529.342,-287.906 536.308,-279.923 525.884,-281.82 529.342,-287.906"/>
</g>
<!-- toolsub -->
<g id="node7" class="node"><title>toolsub</title>
<ellipse fill="none" stroke="green" cx="685.075" cy="-261.442" rx="45.011" ry="21.8409"/>
<g id="a_node7_6"><a xlink:href="https://github.com/stephenrkell/toolsub.git" xlink:title="Toolchain subversion: utilities for taking back control of C/C++ compilation, assembling, linking">
<text text-anchor="start" x="665.075" y="-257.242" font-family="Times,serif" font-size="14.00">toolsub</text>
</a>
</g>
</g>
<!-- liballocs&#45;&gt;toolsub -->
<g id="edge6" class="edge"><title>liballocs&#45;&gt;toolsub</title>
<path fill="none" stroke="black" d="M472.148,-329.44C512.843,-318.687 576.109,-301.268 630.075,-283.362 633.786,-282.131 637.618,-280.8 641.451,-279.427"/>
<polygon fill="black" stroke="black" points="642.727,-282.687 650.911,-275.959 640.318,-276.114 642.727,-282.687"/>
</g>
<!-- donald -->
<g id="node8" class="node"><title>donald</title>
<ellipse fill="none" stroke="green" cx="791.075" cy="-261.442" rx="43.2674" ry="21.8409"/>
<g id="a_node8_7"><a xlink:href="https://github.com/stephenrkell/donald.git" xlink:title="The Mickey Mouse of dynamic linkers">
<text text-anchor="start" x="773.075" y="-257.242" font-family="Times,serif" font-size="14.00">donald</text>
</a>
</g>
</g>
<!-- liballocs&#45;&gt;donald -->
<g id="edge7" class="edge"><title>liballocs&#45;&gt;donald</title>
<path fill="none" stroke="black" d="M477.345,-334.574C538.559,-326.502 648.18,-309.729 739.075,-283.362 742.6,-282.34 746.215,-281.165 749.817,-279.904"/>
<polygon fill="black" stroke="black" points="751.088,-283.165 759.251,-276.412 748.658,-276.601 751.088,-283.165"/>
</g>
<!-- elftin -->
<g id="node9" class="node"><title>elftin</title>
<ellipse fill="none" stroke="green" cx="890.075" cy="-261.442" rx="37.4533" ry="21.8409"/>
<g id="a_node9_8"><a xlink:href="https://github.com/stephenrkell/elftin.git" xlink:title="Rag&#45;bag of utilities and scripts that do strange things with ELF files">
<text text-anchor="start" x="876.075" y="-257.242" font-family="Times,serif" font-size="14.00">elftin</text>
</a>
</g>
</g>
<!-- liballocs&#45;&gt;elftin -->
<g id="edge9" class="edge"><title>liballocs&#45;&gt;elftin</title>
<path fill="none" stroke="black" d="M479.314,-337.977C557.679,-333.317 715.005,-319.894 843.075,-283.362 846.396,-282.415 849.787,-281.276 853.15,-280.026"/>
<polygon fill="black" stroke="black" points="854.504,-283.254 862.474,-276.272 851.89,-276.76 854.504,-283.254"/>
</g>
<!-- dwarfidl -->
<g id="node10" class="node"><title>dwarfidl</title>
<ellipse fill="none" stroke="green" cx="317.075" cy="-181.602" rx="49.4949" ry="21.8409"/>
<g id="a_node10_9"><a xlink:href="https://github.com/stephenrkell/dwarfidl.git" xlink:title="Language, library and tools for DWARF&#45;described interfaces">
<text text-anchor="start" x="294.075" y="-177.402" font-family="Times,serif" font-size="14.00">dwarfidl</text>
</a>
</g>
</g>
<!-- liballocstool&#45;&gt;dwarfidl -->
<g id="edge10" class="edge"><title>liballocstool&#45;&gt;dwarfidl</title>
<path fill="none" stroke="black" d="M402.72,-241.599C387.258,-230.947 367.784,-217.533 351.314,-206.188"/>
<polygon fill="black" stroke="black" points="353.233,-203.259 343.012,-200.469 349.262,-209.024 353.233,-203.259"/>
</g>
<!-- librunt -->
<g id="node19" class="node"><title>librunt</title>
<ellipse fill="none" stroke="green" cx="428.075" cy="-181.602" rx="43.2674" ry="21.8409"/>
<g id="a_node19_10"><a xlink:href="https://github.com/stephenrkell/librunt.git" xlink:title="A minimal basis for LD_PRELOAD&#45;able runtime extensions and similar tools">
<text text-anchor="start" x="410.075" y="-177.402" font-family="Times,serif" font-size="14.00">librunt</text>
</a>
</g>
</g>
<!-- libsystrap&#45;&gt;librunt -->
<g id="edge19" class="edge"><title>libsystrap&#45;&gt;librunt</title>
<path fill="none" stroke="black" d="M536.226,-243.167C515.278,-231.436 487.46,-215.858 465.283,-203.438"/>
<polygon fill="black" stroke="black" points="466.906,-200.336 456.471,-198.503 463.485,-206.443 466.906,-200.336"/>
</g>
<!-- xed -->
<g id="node20" class="node"><title>xed</title>
<ellipse fill="none" stroke="orange" cx="520.075" cy="-181.602" rx="31.2258" ry="21.8409"/>
<g id="a_node20_11"><a xlink:href="https://github.com/intelxed/xed.git" xlink:title="x86 encoder decoder">
<text text-anchor="start" x="510.075" y="-177.402" font-family="Times,serif" font-size="14.00">xed</text>
</a>
</g>
</g>
<!-- libsystrap&#45;&gt;xed -->
<g id="edge20" class="edge"><title>libsystrap&#45;&gt;xed</title>
<path fill="none" stroke="black" d="M554.726,-239.99C549.367,-231.115 543.001,-220.572 537.197,-210.959"/>
<polygon fill="black" stroke="black" points="540.02,-208.864 531.855,-202.112 534.028,-212.482 540.02,-208.864"/>
</g>
<!-- mbuild -->
<g id="node21" class="node"><title>mbuild</title>
<ellipse fill="none" stroke="orange" cx="614.075" cy="-181.602" rx="45.011" ry="21.8409"/>
<g id="a_node21_12"><a xlink:href="https://github.com/intelxed/mbuild.git" xlink:title="python&#45;based build system used for building XED">
<text text-anchor="start" x="594.075" y="-177.402" font-family="Times,serif" font-size="14.00">mbuild</text>
</a>
</g>
</g>
<!-- libsystrap&#45;&gt;mbuild -->
<g id="edge21" class="edge"><title>libsystrap&#45;&gt;mbuild</title>
<path fill="none" stroke="black" d="M579.423,-239.99C584.658,-231.32 590.855,-221.058 596.55,-211.626"/>
<polygon fill="black" stroke="black" points="599.636,-213.286 601.808,-202.917 593.643,-209.668 599.636,-213.286"/>
</g>
<!-- musl -->
<g id="node22" class="node"><title>musl</title>
<ellipse fill="none" stroke="orange" cx="714.075" cy="-181.602" rx="36.5405" ry="21.8409"/>
<g id="a_node22_13"><a xlink:href="git://git.musl-libc.org/musl" xlink:title="musl">
<text text-anchor="start" x="700.075" y="-177.402" font-family="Times,serif" font-size="14.00">musl</text>
</a>
</g>
</g>
<!-- libsystrap&#45;&gt;musl -->
<g id="edge22" class="edge"><title>libsystrap&#45;&gt;musl</title>
<path fill="none" stroke="black" d="M598.971,-243.552C622.333,-231.182 654.055,-214.384 678.281,-201.555"/>
<polygon fill="black" stroke="black" points="679.966,-204.623 687.166,-196.85 676.691,-198.437 679.966,-204.623"/>
</g>
<!-- libx86emulate -->
<g id="node23" class="node"><title>libx86emulate</title>
<ellipse fill="none" stroke="green" cx="842.075" cy="-181.602" rx="72.6644" ry="21.8409"/>
<g id="a_node23_14"><a xlink:href="https://github.com/stephenrkell/libx86emulate.git" xlink:title="Keir Fraser&#39;s x86&#45;on&#45;x86 emulator from the Xen hypervisor, hacked in various ways (currently for decode&#45;only operation)">
<text text-anchor="start" x="803.075" y="-177.402" font-family="Times,serif" font-size="14.00">libx86emulate</text>
</a>
</g>
</g>
<!-- libsystrap&#45;&gt;libx86emulate -->
<g id="edge23" class="edge"><title>libsystrap&#45;&gt;libx86emulate</title>
<path fill="none" stroke="black" d="M607.945,-246.729C615.608,-244.259 623.569,-241.759 631.075,-239.522 680.221,-224.871 736.29,-209.824 778.272,-198.883"/>
<polygon fill="black" stroke="black" points="779.287,-202.235 788.086,-196.333 777.527,-195.46 779.287,-202.235"/>
</g>
<!-- m4ntlr -->
<g id="node11" class="node"><title>m4ntlr</title>
<ellipse fill="none" stroke="green" cx="55.0746" cy="-101.761" rx="43.2674" ry="21.8409"/>
<g id="a_node11_15"><a xlink:href="git://github.com/stephenrkell/m4ntlr.git" xlink:title="M4 macros for building language&#45;independent ANTLR grammars">
<text text-anchor="start" x="37.0746" y="-97.5609" font-family="Times,serif" font-size="14.00">m4ntlr</text>
</a>
</g>
</g>
<!-- dwarfidl&#45;&gt;m4ntlr -->
<g id="edge11" class="edge"><title>dwarfidl&#45;&gt;m4ntlr</title>
<path fill="none" stroke="black" d="M273.999,-170.504C231.236,-160.111 164.018,-142.779 107.075,-123.681 103.745,-122.564 100.32,-121.347 96.8935,-120.079"/>
<polygon fill="black" stroke="black" points="97.8999,-116.716 87.3094,-116.414 95.3998,-123.255 97.8999,-116.716"/>
</g>
<!-- libantlr3cxx -->
<g id="node12" class="node"><title>libantlr3cxx</title>
<ellipse fill="none" stroke="green" cx="180.075" cy="-101.761" rx="63.7795" ry="21.8409"/>
<g id="a_node12_16"><a xlink:href="git://github.com/stephenrkell/libantlr3cxx.git" xlink:title="C++ helpers for using ANTLR3 parsers and trees">
<text text-anchor="start" x="147.075" y="-97.5609" font-family="Times,serif" font-size="14.00">libantlr3cxx</text>
</a>
</g>
</g>
<!-- dwarfidl&#45;&gt;libantlr3cxx -->
<g id="edge12" class="edge"><title>dwarfidl&#45;&gt;libantlr3cxx</title>
<path fill="none" stroke="black" d="M287.685,-163.903C268.147,-152.802 242.225,-138.074 220.719,-125.854"/>
<polygon fill="black" stroke="black" points="222.227,-122.686 211.804,-120.789 218.769,-128.772 222.227,-122.686"/>
</g>
<!-- libcxxgen -->
<g id="node13" class="node"><title>libcxxgen</title>
<ellipse fill="none" stroke="green" cx="317.075" cy="-101.761" rx="55.3091" ry="21.8409"/>
<g id="a_node13_17"><a xlink:href="git://github.com/stephenrkell/libcxxgen.git" xlink:title="Help for those foolish enough to want to generate C++ code.">
<text text-anchor="start" x="290.075" y="-97.5609" font-family="Times,serif" font-size="14.00">libcxxgen</text>
</a>
</g>
</g>
<!-- dwarfidl&#45;&gt;libcxxgen -->
<g id="edge13" class="edge"><title>dwarfidl&#45;&gt;libcxxgen</title>
<path fill="none" stroke="black" d="M317.075,-159.331C317.075,-151.459 317.075,-142.364 317.075,-133.8"/>
<polygon fill="black" stroke="black" points="320.575,-133.736 317.075,-123.736 313.575,-133.736 320.575,-133.736"/>
</g>
<!-- libdwarfpp -->
<g id="node14" class="node"><title>libdwarfpp</title>
<ellipse fill="none" stroke="green" cx="450.075" cy="-101.761" rx="59.2941" ry="21.8409"/>
<g id="a_node14_18"><a xlink:href="git://github.com/stephenrkell/libdwarfpp.git" xlink:title="A high&#45;level API for accessing DWARF debugging information, in C++">
<text text-anchor="start" x="420.075" y="-97.5609" font-family="Times,serif" font-size="14.00">libdwarfpp</text>
</a>
</g>
</g>
<!-- dwarfidl&#45;&gt;libdwarfpp -->
<g id="edge14" class="edge"><title>dwarfidl&#45;&gt;libdwarfpp</title>
<path fill="none" stroke="black" d="M345.934,-163.711C364.834,-152.649 389.783,-138.048 410.523,-125.909"/>
<polygon fill="black" stroke="black" points="412.558,-128.773 419.421,-120.702 409.022,-122.732 412.558,-128.773"/>
</g>
<!-- antlr3 -->
<g id="node15" class="node"><title>antlr3</title>
<ellipse fill="none" stroke="orange" cx="567.075" cy="-101.761" rx="39.6962" ry="21.8409"/>
<g id="a_node15_19"><a xlink:href="https://github.com/antlr/antlr3" xlink:title="antlr v3 repository (pulled from p4 with history from //depot/code/antlr/antlr3&#45;main">
<text text-anchor="start" x="551.075" y="-97.5609" font-family="Times,serif" font-size="14.00">antlr3</text>
</a>
</g>
</g>
<!-- dwarfidl&#45;&gt;antlr3 -->
<g id="edge15" class="edge"><title>dwarfidl&#45;&gt;antlr3</title>
<path fill="none" stroke="black" d="M354.04,-166.906C361.305,-164.381 368.899,-161.858 376.075,-159.681 438.379,-140.782 456.394,-144.526 518.075,-123.681 521.328,-122.582 524.668,-121.361 528.002,-120.078"/>
<polygon fill="black" stroke="black" points="529.326,-123.318 537.301,-116.343 526.717,-116.822 529.326,-123.318"/>
</g>
<!-- libcxxfileno -->
<g id="node16" class="node"><title>libcxxfileno</title>
<ellipse fill="none" stroke="green" cx="306.075" cy="-21.9203" rx="63.7795" ry="21.8409"/>
<g id="a_node16_20"><a xlink:href="git://github.com/stephenrkell/libcxxfileno.git" xlink:title="Distribution of Richard Kreckel&#39;s fileno() function for popular implementations of the C++ standard library">
<text text-anchor="start" x="273.075" y="-17.7203" font-family="Times,serif" font-size="14.00">libcxxfileno</text>
</a>
</g>
</g>
<!-- libdwarfpp&#45;&gt;libcxxfileno -->
<g id="edge16" class="edge"><title>libdwarfpp&#45;&gt;libcxxfileno</title>
<path fill="none" stroke="black" d="M417.758,-83.292C397.133,-72.1428 370.19,-57.5783 347.934,-45.5481"/>
<polygon fill="black" stroke="black" points="349.493,-42.4118 339.031,-40.7354 346.164,-48.5697 349.493,-42.4118"/>
</g>
<!-- libsrk31cxx -->
<g id="node17" class="node"><title>libsrk31cxx</title>
<ellipse fill="none" stroke="green" cx="450.075" cy="-21.9203" rx="62.4516" ry="21.8409"/>
<g id="a_node17_21"><a xlink:href="git://github.com/stephenrkell/libsrk31cxx.git" xlink:title="Stephen&#39;s rag&#45;bag of C++ utilities">
<text text-anchor="start" x="418.075" y="-17.7203" font-family="Times,serif" font-size="14.00">libsrk31cxx</text>
</a>
</g>
</g>
<!-- libdwarfpp&#45;&gt;libsrk31cxx -->
<g id="edge17" class="edge"><title>libdwarfpp&#45;&gt;libsrk31cxx</title>
<path fill="none" stroke="black" d="M450.075,-79.4906C450.075,-71.6181 450.075,-62.5233 450.075,-53.9597"/>
<polygon fill="black" stroke="black" points="453.575,-53.8953 450.075,-43.8954 446.575,-53.8954 453.575,-53.8953"/>
</g>
<!-- libdwarf -->
<g id="node18" class="node"><title>libdwarf</title>
<ellipse fill="none" stroke="green" cx="580.075" cy="-21.9203" rx="49.4949" ry="21.8409"/>
<g id="a_node18_22"><a xlink:href="git://github.com/stephenrkell/libdwarf.git" xlink:title="Stephen&#39;s not&#45;too&#45;divergent fork of David Anderson&#39;s libdwarf (https://www.prevanders.net/dwarf.html)">
<text text-anchor="start" x="557.075" y="-17.7203" font-family="Times,serif" font-size="14.00">libdwarf</text>
</a>
</g>
</g>
<!-- libdwarfpp&#45;&gt;libdwarf -->
<g id="edge18" class="edge"><title>libdwarfpp&#45;&gt;libdwarf</title>
<path fill="none" stroke="black" d="M480.226,-82.7071C498.829,-71.5682 522.838,-57.1919 542.651,-45.3284"/>
<polygon fill="black" stroke="black" points="544.643,-48.2151 551.425,-40.075 541.047,-42.2094 544.643,-48.2151"/>
</g>
</g>
</svg>
